<?xml version="1.0" encoding="utf-8"?>
<!-- Uploaded to: SVG Repo, www.svgrepo.com, Generator: SVG Repo Mixer Tools -->
<svg fill="#000000" width="800px" height="800px" viewBox="-8 0 32 32" version="1.1" xmlns="http://www.w3.org/2000/svg">
<title>divide</title>
<path d="M14.84 16.84h-14c-0.48 0-0.84-0.36-0.84-0.84s0.36-0.84 0.84-0.84h14c0.48 0 0.84 0.36 0.84 0.84s-0.36 0.84-0.84 0.84zM7.84 12.56c-1.36 0-2.48-1.12-2.48-2.48s1.12-2.48 2.48-2.48 2.48 1.12 2.48 2.48c0 1.36-1.12 2.48-2.48 2.48zM7.84 9.28c-0.44 0-0.8 0.36-0.8 0.8s0.36 0.8 0.8 0.8 0.8-0.36 0.8-0.8c0-0.44-0.36-0.8-0.8-0.8zM7.84 24.4c-1.36 0-2.48-1.12-2.48-2.48s1.12-2.48 2.48-2.48 2.48 1.12 2.48 2.48c0 1.4-1.12 2.48-2.48 2.48zM7.84 21.12c-0.44 0-0.8 0.36-0.8 0.8s0.36 0.8 0.8 0.8 0.8-0.36 0.8-0.8-0.36-0.8-0.8-0.8z"></path>
</svg>