<svg id="圖層_5" data-name="圖層 5" xmlns="http://www.w3.org/2000/svg" viewBox="0 0 502.79 131.86"><defs><style>.cls-1{fill:#231815;}.cls-2{fill:#fff;}</style></defs><path class="cls-1" d="M526.63,216.52H505a.07.07,0,0,1-.07-.08V131.19q0-10.48,1.29-25.66h-.37A89.81,89.81,0,0,1,502.27,118l-39.36,98.57H447.83l-39.45-97.84a91.7,91.7,0,0,1-3.49-13.15h-.37q.74,7.91.74,25.84v85.15H385V84.66h30.8l34.67,87.81a132.16,132.16,0,0,1,5.15,15.08h.46q3.39-10.38,5.51-15.45l35.31-87.44h29.7Z" transform="translate(-385.03 -84.66)"/><polygon class="cls-2" points="319.79 129.86 319.79 16.57 281.99 16.57 281.99 2 375.56 2 375.56 16.57 337.67 16.57 337.67 129.86 319.79 129.86"/><path class="cls-1" d="M758.58,88.66V99.23H720.7V212.52H706.81V99.23H669V88.66h89.56m4-4H665v18.57h37.79V216.52H724.7V103.23h37.88V84.66Z" transform="translate(-385.03 -84.66)"/><path class="cls-1" d="M618.4,84.66H593.76L557,183h74.6l11.86,33.56h24Zm-33,80.46,18.11-52.6a52.78,52.78,0,0,0,1.84-8.28h.37a61.87,61.87,0,0,0,1.75,8.28l18.3,52.6Z" transform="translate(-385.03 -84.66)"/><polygon class="cls-1" points="303.88 98.26 246.52 98.3 240.73 80.46 292.97 80.46 303.88 98.26"/><polygon class="cls-1" points="502.79 131.86 480.82 131.86 480.82 74.66 418.75 74.66 418.75 131.86 396.87 131.86 396.87 0 418.75 0 418.75 55.45 480.82 55.45 480.82 0 502.79 0 502.79 131.86"/><path class="cls-2" d="M478.65,214.52v-8a35.89,35.89,0,0,1,1.63-10.93,44.7,44.7,0,0,1,4.41-9.69,54.83,54.83,0,0,1,6.54-8.64c2.53-2.73,5.29-5.43,8.18-8s5.93-5.12,9-7.52,6.16-5,9.09-7.41,5.4-4.74,7.71-7a47.92,47.92,0,0,0,6.14-7.31,34,34,0,0,0,4-8.12,29.3,29.3,0,0,0,1.46-9.37,25.65,25.65,0,0,0-1.73-9.76,19.46,19.46,0,0,0-4.94-7.14,21,21,0,0,0-7.44-4.3,28.57,28.57,0,0,0-9.14-1.42,41.36,41.36,0,0,0-17,3.89,54.27,54.27,0,0,0-13,8.41V97.51a64.48,64.48,0,0,1,7-4.45,53.12,53.12,0,0,1,8.11-3.57,49.63,49.63,0,0,1,8.78-2.13,66.18,66.18,0,0,1,9.92-.7,49.76,49.76,0,0,1,15.3,2.21,31.89,31.89,0,0,1,11.5,6.38,28,28,0,0,1,7.3,10.43,38.32,38.32,0,0,1,2.61,14.61,46.07,46.07,0,0,1-1.86,13.56,43.92,43.92,0,0,1-5.27,11.21,59.78,59.78,0,0,1-8.36,10c-3.34,3.21-7.1,6.56-11.19,9.93-3.5,2.84-7,5.61-10.4,8.24s-6.69,5.4-9.49,8a46.2,46.2,0,0,0-7,8,15.8,15.8,0,0,0-2.92,8.85v2.45h55.14l3.15-8.21H574.4l-7.55,22.21Z" transform="translate(-385.03 -84.66)"/><path class="cls-1" d="M517.35,88.66A48,48,0,0,1,532,90.77a30.2,30.2,0,0,1,10.79,6,26.21,26.21,0,0,1,6.77,9.7,36.35,36.35,0,0,1,2.46,13.85,44.12,44.12,0,0,1-1.77,13,41.94,41.94,0,0,1-5,10.7,57.92,57.92,0,0,1-8.08,9.63c-3.3,3.18-7,6.49-11,9.81-3.49,2.82-7,5.59-10.38,8.22s-6.79,5.47-9.63,8.09a48.28,48.28,0,0,0-7.34,8.4,17.76,17.76,0,0,0-3.26,10v4.45H554l1-2.57,2.17-5.64h14.41l-6.19,18.21H480.65v-6a34.06,34.06,0,0,1,1.53-10.32,42.62,42.62,0,0,1,4.22-9.26,52.93,52.93,0,0,1,6.3-8.32c2.49-2.69,5.2-5.34,8-7.86s5.87-5.07,8.88-7.46,6.19-5,9.14-7.45,5.46-4.8,7.82-7.12a50.08,50.08,0,0,0,6.38-7.62,36,36,0,0,0,4.28-8.6,31.29,31.29,0,0,0,1.56-10,27.61,27.61,0,0,0-1.88-10.52,21.43,21.43,0,0,0-5.45-7.86,23,23,0,0,0-8.14-4.72,30.61,30.61,0,0,0-9.78-1.52,43.42,43.42,0,0,0-17.83,4.06A54.91,54.91,0,0,0,485.54,108V98.54a59,59,0,0,1,6-3.72,50.52,50.52,0,0,1,7.8-3.44,47.42,47.42,0,0,1,8.43-2,64.82,64.82,0,0,1,9.62-.68m0-4a68.87,68.87,0,0,0-10.22.72A51.83,51.83,0,0,0,498,87.6a54.26,54.26,0,0,0-8.42,3.71,65.2,65.2,0,0,0-8,5.2v20.16a55.29,55.29,0,0,1,15.82-11.12,39.28,39.28,0,0,1,16.19-3.71,26.53,26.53,0,0,1,8.5,1.31,19,19,0,0,1,6.74,3.89,17.45,17.45,0,0,1,4.43,6.42,23.49,23.49,0,0,1,1.58,9,27.26,27.26,0,0,1-1.35,8.73,31.87,31.87,0,0,1-3.8,7.64,46.43,46.43,0,0,1-5.88,7q-3.43,3.39-7.6,6.92-4.42,3.7-9,7.37t-9,7.6a114.52,114.52,0,0,0-8.32,8.14,55.68,55.68,0,0,0-6.79,8.95A46.66,46.66,0,0,0,478.37,195a37.87,37.87,0,0,0-1.72,11.53v10h91.64l8.9-26.21H554.45l-3.16,8.21H499.53v-.45a13.77,13.77,0,0,1,2.58-7.73,43.41,43.41,0,0,1,6.74-7.69q4.15-3.84,9.36-7.87t10.45-8.27q6.24-5.16,11.3-10a61.48,61.48,0,0,0,8.64-10.31,45.66,45.66,0,0,0,5.51-11.71,47.76,47.76,0,0,0,1.95-14.16,40,40,0,0,0-2.76-15.37,29.87,29.87,0,0,0-7.82-11.17A33.91,33.91,0,0,0,533.27,87a51.92,51.92,0,0,0-15.92-2.3Z" transform="translate(-385.03 -84.66)"/></svg>