<?xml version="1.0" ?>
<!DOCTYPE svg  PUBLIC '-//W3C//DTD SVG 1.1//EN'  'http://www.w3.org/Graphics/SVG/1.1/DTD/svg11.dtd'>
<!-- Uploaded to: SVG Repo, www.svgrepo.com, Generator: SVG Repo Mixer Tools -->
<svg fill="#000000" width="800px" height="800px" viewBox="0 0 100 100" version="1.1" xml:space="preserve" xmlns="http://www.w3.org/2000/svg" xmlns:xlink="http://www.w3.org/1999/xlink">
<g id="Grid"/>
<g id="_x31_"/>
<g id="_x32_"/>
<g id="_x33_"/>
<g id="_x34_"/>
<g id="_x35_"/>
<g id="_x36_"/>
<g id="_x37_"/>
<g id="_x38_"/>
<g id="_x39_"/>
<g id="_x31_0"/>
<g id="_x31_1"/>
<g id="_x31_2"/>
<g id="_x31_3"/>
<g id="_x31_4"/>
<g id="_x31_5"/>
<g id="_x31_6"/>
<g id="_x31_7"/>
<g id="_x31_8"/>
<g id="_x31_9"/>
<g id="_x32_0"/>
<g id="_x32_1"/>
<g id="_x32_2"/>
<g id="_x32_3"/>
<g id="_x32_4">
<path d="M50.3,80.4c-0.8,0-1.6-0.3-2.2-0.8l-7.3-5.5l-6.6,4.3c-1.2,0.7-2.6,0.8-3.8,0.1c-1.2-0.7-2-1.9-2-3.3V52.7   c0-11.1,8.3-20.4,19.4-21.6c1.6-0.2,3-0.2,4.6,0c4.9,0.5,9.6,2.7,13.1,6.2c4.1,4.1,6.3,9.5,6.3,15.3v22.5c0,1.4-0.8,2.7-2,3.3   c-1.2,0.6-2.7,0.6-3.9-0.2l-6-4.1l-7.3,5.5C51.8,80.2,51,80.4,50.3,80.4z M40.7,71.1c0.6,0,1.1,0.2,1.6,0.5l7.5,5.6   c0.3,0.2,0.6,0.2,0.9,0l7.5-5.6c0.9-0.7,2.2-0.7,3.2,0l6.1,4.2c0.3,0.2,0.7,0.1,0.8,0c0.1-0.1,0.4-0.3,0.4-0.7V52.7   c0-5-1.9-9.7-5.5-13.2c-3-3-7-4.9-11.2-5.4c-1.3-0.1-2.6-0.1-4,0c-9.5,1-16.7,9-16.7,18.6v22.6c0,0.4,0.3,0.6,0.4,0.7   c0.1,0.1,0.4,0.2,0.8,0l6.7-4.4C39.7,71.3,40.2,71.1,40.7,71.1z M29.8,69.3c-0.1,0-0.1,0-0.2,0c-0.7-0.1-1.3-0.3-1.9-0.7l-7.3-5.4   l-6.6,4.3c-1.2,0.7-2.6,0.8-3.8,0.1c-1.2-0.7-2-1.9-2-3.3V41.7c0-12,9.7-21.7,21.7-21.7c5.8,0,11.2,2.3,15.3,6.4   c1.7,1.7,3,3.6,4.1,5.6c0.2,0.4,0.2,1,0,1.4c-0.2,0.4-0.7,0.7-1.2,0.8c-9.5,1-16.7,9-16.7,18.6v15.1c0,0.4-0.2,0.8-0.5,1.1   C30.5,69.2,30.2,69.3,29.8,69.3z M20.5,60.1c0.6,0,1.1,0.2,1.6,0.5l6.2,4.6V52.7c0-10.4,7.2-19.1,17.2-21.2c-0.7-1.1-1.5-2.1-2.5-3   c-3.5-3.5-8.2-5.5-13.2-5.5c-10.3,0-18.7,8.4-18.7,18.7v22.6c0,0.4,0.3,0.6,0.4,0.7c0.1,0.1,0.4,0.2,0.8,0l6.7-4.4   C19.5,60.3,20,60.1,20.5,60.1z M70.5,69.4c-0.2,0-0.3,0-0.5,0c-0.7-0.1-1.3-0.7-1.3-1.5V52.7c0-5-1.9-9.7-5.5-13.2   c-3-3-7-4.9-11.2-5.4c-0.5-0.1-0.9-0.3-1.2-0.8c-0.2-0.4-0.2-1,0-1.4c3.7-7.4,11.1-12,19.4-12c5.8,0,11.3,2.3,15.3,6.4   c4.1,4.1,6.4,9.5,6.4,15.3v22.5c0,1.4-0.8,2.7-2,3.3c-1.2,0.7-2.7,0.6-3.9-0.2l-6-4.1l-7.4,5.4C72,69.1,71.3,69.4,70.5,69.4z    M54.5,31.5c4.1,0.9,7.9,2.9,10.8,5.9c4.1,4.1,6.3,9.5,6.3,15.3v12.9l6.7-5c0.9-0.7,2.2-0.7,3.2-0.1l6.2,4.2c0.3,0.2,0.7,0.1,0.8,0   c0.1-0.1,0.4-0.3,0.4-0.7V41.7c0-5-1.9-9.7-5.5-13.2c-3.5-3.5-8.2-5.5-13.2-5.5C63.8,23,57.9,26.2,54.5,31.5z M40.7,58.8   c-3.2,0-5.8-2.6-5.8-5.8s2.6-5.8,5.8-5.8s5.8,2.6,5.8,5.8S43.9,58.8,40.7,58.8z M40.7,50.2c-1.5,0-2.8,1.2-2.8,2.8s1.2,2.8,2.8,2.8   s2.8-1.2,2.8-2.8S42.3,50.2,40.7,50.2z M21.6,47.6c-4.7,0-8.6-3.9-8.6-8.6c0-4.7,3.9-8.6,8.6-8.6s8.6,3.9,8.6,8.6   C30.2,43.7,26.4,47.6,21.6,47.6z M21.6,33.3c-3.1,0-5.6,2.5-5.6,5.6c0,3.1,2.5,5.6,5.6,5.6s5.6-2.5,5.6-5.6   C27.2,35.9,24.7,33.3,21.6,33.3z M58.8,58.8c-3.2,0-5.8-2.6-5.8-5.8s2.6-5.8,5.8-5.8s5.8,2.6,5.8,5.8S61.9,58.8,58.8,58.8z    M58.8,50.2c-1.5,0-2.8,1.2-2.8,2.8s1.2,2.8,2.8,2.8s2.8-1.2,2.8-2.8S60.3,50.2,58.8,50.2z M80,49.6c-3.2,0-5.8-2.6-5.8-5.8   S76.8,38,80,38s5.8,2.6,5.8,5.8S83.2,49.6,80,49.6z M80,41c-1.5,0-2.8,1.2-2.8,2.8s1.2,2.8,2.8,2.8s2.8-1.2,2.8-2.8S81.5,41,80,41z    M70,38.6c-3.2,0-5.8-2.6-5.8-5.8S66.8,27,70,27s5.8,2.6,5.8,5.8S73.2,38.6,70,38.6z M70,30c-1.5,0-2.8,1.2-2.8,2.8   s1.2,2.8,2.8,2.8s2.8-1.2,2.8-2.8S71.5,30,70,30z"/>
</g>
<g id="_x32_5"/>
</svg>